# xmcd
# 
# Track frame offsets:
#   150
#   16217
#   36034
#   52998
#   65978
#   83140
#   100443
#   118562
#   141283
#   157674
#   172253
#   189274
# 
# Disc length: 2775 seconds
# 
# Revision: 3
# Processed by: cddbd v1.5.2PL0 Copyright (c) Steve Scherf et al.
# Submitted via: Synapstar 1.0 
# 
DISCID=9c0ad50c
DTITLE=Various Artist - CB60455
DYEAR=2011
DGENRE=Country
TTITLE0=Miranda Lambert - That's The Way The World Goes 'Round
TTITLE1=Jason Aldean and Kelly Clarkson - Don't You Wanna Stay
TTITLE2=Josh Turner - I Wouldn't Be A Man
TTITLE3=Carrie Underwood - Songs Like This
TTITLE4=Darius Rucker - This
TTITLE5=Josh Thompson - Won't Be Lonely Long
TTITLE6=Kenny Chesney - Somewhere With You
TTITLE7=Taylor Swift - Back To December
TTITLE8=Lee Brice - Beautiful Every Time
TTITLE9=Jaron and The Long Road To Love - That's Beautiful To Me
TTITLE10=Ashley Gearing - What You Think About Us
TTITLE11=Easton Corbin - I Can't Love You Back
EXTD=
EXTT0=
EXTT1=
EXTT2=
EXTT3=
EXTT4=
EXTT5=
EXTT6=
EXTT7=
EXTT8=
EXTT9=
EXTT10=
EXTT11=
PLAYORDER=
